<?xml version="1.0" encoding="UTF-8"?>
<svg id="a" data-name="Layer 1" xmlns="http://www.w3.org/2000/svg" viewBox="0 0 1272.22 1222.28">
  <text transform="translate(146.17 -55.85)" fill="#66cdd9" font-family="YuGothicUI-Bold, &apos;Yu Gothic UI&apos;" font-size="261" font-weight="700" letter-spacing="0em"><tspan x="0" y="0">ピ</tspan></text>
  <text transform="translate(350.66 -44.03)" fill="#66cdd9" font-family="YuGothicUI-Bold, &apos;Yu Gothic UI&apos;" font-size="208" font-weight="700" letter-spacing="-.03em"><tspan x="0" y="0">ナ</tspan></text>
  <g>
    <path d="M212.61,746.08c5.33,3.55,9.77,7.99,14.79,11.68,15.24,11.21,31.8,19.61,49.65,25.84,11.74,4.1,23.79,6.88,35.97,8.5,13.26,1.77,26.68,1.7,40.12,.4,16.69-1.61,32.78-5.59,48.29-11.54,17.29-6.63,33.25-15.9,47.68-27.63,16.46-13.38,30.51-28.88,41.54-47.1,8.96-14.8,16.41-30.3,20.78-47,6.11-23.4,8.11-47.11,4.92-71.36-5.48-41.57-23.17-76.89-52.52-106.49-12.86-12.97-27.57-23.44-43.72-32.17-12.05-6.51-24.81-10.88-37.66-15.01-7.6-2.44-15.78-3.11-23.72-4.46-10.85-1.85-21.81-2.34-32.76-1.58-34.1,2.37-65.58,12.64-93.8,32.08-29.5,20.31-51.24,47.22-65.3,80.04-6.97,16.25-10.78,33.44-13.08,51.11-1.87,14.35-1.23,28.6-.46,42.76,1.09,20.04,3.58,39.99,8.34,59.66,3.99,16.48,8.39,32.84,12.79,49.2,3.92,14.56,9.1,28.78,13.19,43.3,3.25,11.52,7.21,22.83,11.04,34.12,6.62,19.53,14.57,38.62,22.22,57.78,6.54,16.38,13.05,32.79,20.32,48.85,5.68,12.55,11.41,25.1,17.24,37.59,9.12,19.56,18.39,39.04,27.72,58.49,11.01,22.96,22.19,45.85,33.2,68.81,2.33,4.86,4.42,9.84,6.32,14.88,1.75,4.65,.39,6.48-4.49,6.74-.33,.02-.67,0-1,.03-8.56,1.03-13.28-2.24-17.2-10.6-13.95-29.71-28.07-59.35-41.7-89.21-10.72-23.48-21.02-47.14-31.04-70.92-7.03-16.7-13.38-33.68-20.52-50.33-9.82-22.91-18.04-46.43-27.08-69.63-7.25-18.59-13.81-37.46-20.05-56.41-6.58-19.98-13.13-40.01-18.01-60.48-4.5-18.87-7.82-37.96-9.61-57.38-2.21-23.93-2.62-47.81-.48-71.66,1.26-13.96,3.81-27.79,7.18-41.52,4.78-19.48,12.12-37.81,21.7-55.3,10.6-19.33,23.5-37.16,37.22-54.36,12.18-15.28,24.97-30.07,37.3-45.25,24.99-30.77,49.24-62.09,70.82-95.42,10.89-16.82,21.17-33.93,30.04-51.87,8.73-17.68,16.4-35.86,18.9-55.55,1.14-8.95,1.01-18.14-.94-27.28-2.86-13.38-7.02-26.28-12.14-38.92-1.08-2.67-.1-3.53,2.58-3.51,14.09,.06,28.23-.66,41.89,4.01,8.28,2.83,15.76,7.18,22.78,12.25,3.23,2.33,6.52,2.7,9.84,1.51,19.18-6.87,39.11-6.31,58.89-5.5,18.97,.77,37.8,3.64,55.78,10.13,17.12,6.18,32.72,15.33,47.34,26.09,8.42,6.2,16.14,13.29,24.23,19.87,16.21,13.17,28.07,29.41,37.04,47.88,5.89,12.12,9.52,25.13,12.98,38.18,4.25,16.02,6.99,32.31,9.24,48.66,2.13,15.45,3.28,31.06,4.46,46.62,1.45,18.97,2.88,37.92,4.89,56.85,1.59,14.98,4.34,29.72,7.59,44.34,4.35,19.55,10.85,38.52,18.11,57.2,9.66,24.83,21.31,48.77,34.13,72.05,10.44,18.97,22.08,37.31,34.11,55.36,14.38,21.58,29.63,42.56,45.77,62.81,14.42,18.08,29.55,35.61,45.23,52.65,25.2,27.39,51.95,53.12,80.34,77.16,30.42,25.76,62.97,48.45,98.56,66.45,20.45,10.35,41.78,18.81,63.25,26.94,24.09,9.12,48.81,16.65,72.17,27.68,7.27,3.43,8.86,6.14,7.58,11.3-.65,2.61-2.69,4.18-4.36,5.79-26.97,26.04-54.7,51.21-84.94,73.49-12.55,9.25-25.1,18.47-38.77,26.04-5.03,2.78-10.24,5.1-15.81,6.51-6.33,1.6-11.68-1.17-16.62-4.46-14.9-9.92-27.54-22.54-40.52-34.72-31.73-29.77-61.53-61.32-87.55-96.28-23.22-31.18-42.89-64.57-60.85-99-8.97-17.19-17.29-34.73-26.63-51.72-6.25-11.36-10.77-12.78-17.94,.17-5.88,10.62-9.79,22.03-13.56,33.45-3.75,11.36-7.3,22.84-9.82,34.52-2.49,11.53-4.49,23.21-5.52,35.03-.55,6.29-.88,12.54-.82,18.84,.05,5,1.7,6.81,6.83,6.95,4.32,.12,8.71,.31,12.97-.25,19.95-2.61,40.08-2.92,60.07-5.11,4.62-.51,9.32-.42,13.97-.31,6.83,.17,9.39,2.38,9.81,9.17,.42,6.8,.36,13.65,.14,20.47-.15,4.61-3.8,7.66-8.96,8.01-10.07,.68-20.14,1.76-30.21,1.8-15.5,.07-30.87,2.11-46.34,2.5-3.43,.09-6.87,1.08-10.24,1.93-2.71,.68-2.7,3.11-2.56,5.29,.42,6.32,3.06,12.06,5.12,17.89,8.12,22.94,17.83,45.2,29.26,66.7,4.81,9.05,9.7,18.06,14.38,27.18,3.96,7.71,1.17,8.39-4.85,10.5-5.1,1.79-10.48,3.15-15.84,3.77-13.5,1.57-26.84,4.47-40.52,4.52-4.43,.02-8.88,1.14-13.28,.92-8.25-.41-12.99-5.83-15.33-13.1-5.59-17.3-11.66-34.44-16.71-51.94-4.34-15.05-8.3-30.19-11.26-45.51-3.01-15.59-5.11-31.39-6.67-47.25-1.13-11.46-2.22-22.99-2.55-34.42-.41-14.18-.62-28.46,.36-42.69,.81-11.73,.42-23.56,1.56-35.25,1.02-10.43,2.25-20.88,3.51-31.29,1.8-14.87,4.83-29.48,7.42-44.19,1.32-7.49,2.62-14.99,4.36-22.38,.9-3.84,.48-7.59,.48-11.37,.01-5.68-4.95-6.45-8.63-6.75-13.4-1.1-26.79-3.07-40.32-1.84-10.08,.92-11.71,2.17-13.81,14.5-2.16,12.7-3.55,25.5-4.71,38.35-1.17,13.03-2.47,26.04-3.44,39.09-2.57,34.33-1.75,68.71-1.81,103.08-.02,10.66-.08,21.31-.12,31.97-.01,3.34-.06,6.66-1.47,9.79-.76,1.69,.06,4.36-2.67,4.81-2.7,.45-4.35-1.62-5.52-3.44-3.53-5.49-7-11.06-10.02-16.85-12.83-24.65-24.05-50.05-33.78-76.06-7.47-19.97-13.81-40.32-18.83-61.1-3.48-14.41-6.63-28.88-9.99-43.31-2.11-9.04-3.91-18.27-7.69-26.85-1.2-2.73-2.17-6.21-5.88-6.51-3.4-.28-5.1,2.46-6.81,4.94-6.55,9.54-10.37,20.41-14.87,30.92-6.32,14.78-11.28,30.12-15.72,45.53-3.92,13.63-6.95,27.57-8.98,41.73-2.2,15.37-4.22,30.73-5.84,46.18-2.44,23.21-1.98,46.45-2.23,69.69-.17,15.65,.99,31.26,2.62,46.81,1.66,15.84,4.58,31.51,7.22,47.23,2.25,13.44,5.54,26.67,7.54,40.16,.79,5.32,2.52,10.51,3.8,15.76,1.69,6.92-.41,9.97-7.4,10.72-8.14,.88-16.26,.87-24.42,0-3.58-.38-5.73-2.01-7.06-5.26-3.57-8.75-5.35-18-7.73-27.08-2.51-9.56-4.64-19.22-6.88-28.85-2.5-10.76-4.88-21.54-7.38-32.29-2.41-10.36-5.32-20.63-7.3-31.07-3.31-17.43-7.45-34.69-11.03-52.06-2.81-13.65-5.63-27.33-8.98-40.89-3.24-13.1-5.23-26.52-8.74-39.53-3.06-11.34-4.65-23.22-10.91-33.6-2.53-4.19-6.07-4.95-10.18-4.08-13.25,2.82-25.94,7.31-38.01,13.45-8.43,4.29-11.41,10.44-9.5,19.46,4.64,21.88,10.5,43.44,16.39,65.01,4.68,17.15,10.12,34.07,14.99,51.16,4.22,14.79,10.27,29.05,14.97,43.71,6.94,21.65,15.45,42.72,22.75,64.23,3.26,9.6,7.51,18.83,10.66,28.49,1.78,5.47,.71,8.04-5.04,8.53-9.3,.79-18.61-.29-27.91-.5-12.49-.28-17.02-9.24-21.58-18.16-15.51-30.32-30.64-60.82-45.37-91.53-9.24-19.28-18.21-38.69-27.22-58.08-14.51-31.23-27.94-62.93-41.16-94.71-9.27-22.3-17.64-45-25.88-67.71-4.02-11.09-6.86-22.62-10.16-33.97-.51-1.75-.57-3.6,.07-5.81Z" fill="#096dc1"/>
    <path d="M326.18,783.84c-77.44,.33-141.55-64.84-139.69-143.38,1.79-75.57,62.83-139.14,144.14-137.65,74.68,1.38,140.06,63.23,137.19,146.28-2.51,72.62-62.9,135.84-141.64,134.75Z" fill="#096dc1"/>
    <path d="M593.34,1115.07c-7.68-.57-13.91-.05-20.25-1.35-8.17-1.68-12.32-7.02-15.21-13.78-4.72-11.08-7.34-22.82-10.24-34.48-3.56-14.33-6.63-28.76-9.23-43.28-2.2-12.31-3.81-24.72-5.74-37.07-1.79-11.4-2.32-22.91-4.03-34.3-1.25-8.32-2.31-16.75-2.43-25.15-.39-25.62-2.88-51.17-2.25-76.81,.1-4.14,.63-8.28,1.19-12.39,.15-1.14,.05-2.98,1.85-3.11,1.53-.11,2.16,1.24,2.81,2.45,5.48,10.26,9.56,21.14,13.99,31.86,13.05,31.52,26.05,63.03,41.23,93.64,15.43,31.1,33.16,60.85,51.01,90.55,9.39,15.63,19.91,30.58,28.29,46.83,2.63,5.1,1.9,6.47-3.44,8.75-5.73,2.44-11.88,2.61-17.82,3.28-16.99,1.91-34.06,3.05-49.72,4.37Z" fill="#096dc1"/>
  </g>
</svg>